<?xml version="1.0" encoding="UTF-8" standalone="no"?>
<svg
   xmlns:dc="http://purl.org/dc/elements/1.1/"
   xmlns:cc="http://creativecommons.org/ns#"
   xmlns:rdf="http://www.w3.org/1999/02/22-rdf-syntax-ns#"
   xmlns:svg="http://www.w3.org/2000/svg"
   xmlns="http://www.w3.org/2000/svg"
   id="svg8"
   version="1.1"
   viewBox="0 0 538.32495 127.87247"
   height="127.87247mm"
   width="538.32495mm">
  <defs
     id="defs2" />
  <metadata
     id="metadata5">
    <rdf:RDF>
      <cc:Work
         rdf:about="">
        <dc:format>image/svg+xml</dc:format>
        <dc:type
           rdf:resource="http://purl.org/dc/dcmitype/StillImage" />
        <dc:title></dc:title>
      </cc:Work>
    </rdf:RDF>
  </metadata>
  <g
     transform="translate(100.8451,-62.182268)"
     id="layer1">
    <g
       id="g5181">
      <rect
         style="fill:#a6a6a6;fill-opacity:1;fill-rule:nonzero;stroke:#000000;stroke-width:2;stroke-linecap:butt;stroke-linejoin:round;stroke-miterlimit:4;stroke-dasharray:none;stroke-opacity:1"
         id="rect4589"
         width="3.1555276"
         height="29.752117"
         x="4.2614179"
         y="87.274544"
         ry="1.5777638"
         transform="rotate(-38.094631)" />
      <rect
         style="fill:#a6a6a6;fill-opacity:1;fill-rule:nonzero;stroke:#000000;stroke-width:2;stroke-linecap:butt;stroke-linejoin:round;stroke-miterlimit:4;stroke-dasharray:none;stroke-opacity:1"
         id="rect4589-6"
         width="3.1555274"
         height="29.752115"
         x="113.11872"
         y="1.1413279"
         ry="1.5777637"
         transform="rotate(33.003579)" />
      <circle
         style="fill:#a6a6a6;fill-opacity:1;fill-rule:nonzero;stroke:#000000;stroke-width:3;stroke-linecap:butt;stroke-linejoin:round;stroke-miterlimit:4;stroke-dasharray:none;stroke-opacity:1"
         id="path4587"
         cx="80.240562"
         cy="93.243065"
         r="15.777638" />
      <path
         style="fill:#865b30;fill-opacity:1;fill-rule:nonzero;stroke:#000000;stroke-width:3;stroke-linecap:butt;stroke-linejoin:round;stroke-miterlimit:4;stroke-dasharray:none;stroke-opacity:1"
         d="m 43.372356,94.210057 77.240014,-5.964446 c 10.53128,-0.813223 19.13141,3.788954 17.90088,14.553249 l -6.50941,56.94229 c -0.88079,7.70489 -7.80478,10.00409 -12.78634,10.02026 l -73.520355,0.23858 c -10.560996,0.0343 -10.715596,-3.77855 -11.391463,-9.54311 L 28.958668,109.95619 C 27.817843,99.1815 32.841079,95.023279 43.372356,94.210057 Z"
         id="rect4504" />
      <path
         style="fill:#555555;fill-opacity:1;fill-rule:nonzero;stroke:#000000;stroke-width:3;stroke-linecap:butt;stroke-linejoin:round;stroke-miterlimit:4;stroke-dasharray:none;stroke-opacity:1"
         d="m 45.100903,101.48528 c 4.291803,-5.057 72.149967,-6.35556 76.020587,0 3.35464,5.50831 3.68081,50.43251 0,54.16758 -5.29012,5.36811 -72.449871,5.16812 -76.020587,0 -4.610153,-6.67256 -3.766994,-49.72896 0,-54.16758 z"
         id="rect4532" />
      <ellipse
         style="fill:#8c8686;fill-opacity:1;fill-rule:nonzero;stroke:none;stroke-width:2;stroke-linecap:butt;stroke-linejoin:round;stroke-miterlimit:4;stroke-dasharray:none;stroke-opacity:1"
         id="path4535"
         cx="111.4736"
         cy="118.10752"
         rx="5.9282112"
         ry="13.367535" />
      <path
         style="fill:#e4a948;fill-opacity:1;fill-rule:nonzero;stroke:none;stroke-width:2;stroke-linecap:butt;stroke-linejoin:round;stroke-miterlimit:4;stroke-dasharray:none;stroke-opacity:1"
         d="m 132.98295,109.02069 c -1.80721,6.10629 -5.06083,10.16524 -5.06083,10.16524 0,0 1.87686,-13.99092 -1.70614,-19.406929 -2.59884,-3.928345 -12.47072,-6.644824 -12.47072,-6.644824 0,0 13.79753,-1.910769 18.07174,2.449732 4.13611,4.219614 2.43788,9.139141 1.16595,13.436781 z"
         id="path4537" />
      <circle
         style="fill:#000000;fill-opacity:1;fill-rule:nonzero;stroke:#8d8d8d;stroke-width:1;stroke-linecap:butt;stroke-linejoin:round;stroke-miterlimit:4;stroke-dasharray:none;stroke-opacity:1"
         id="path4540"
         cx="48.797981"
         cy="163.45355"
         r="3.4936199" />
      <circle
         style="fill:#000000;fill-opacity:1;fill-rule:nonzero;stroke:#8d8d8d;stroke-width:1;stroke-linecap:butt;stroke-linejoin:round;stroke-miterlimit:4;stroke-dasharray:none;stroke-opacity:1"
         id="path4540-3"
         cx="117.88151"
         cy="163.34087"
         r="3.4936199" />
      <g
         aria-label="TV"
         style="font-style:normal;font-variant:normal;font-weight:bold;font-stretch:normal;font-size:105.83333588px;line-height:125%;font-family:'Lapsus Pro';-inkscape-font-specification:'Lapsus Pro, Bold';font-variant-ligatures:normal;font-variant-caps:normal;font-variant-numeric:normal;font-feature-settings:normal;text-align:start;letter-spacing:0px;word-spacing:0px;writing-mode:lr-tb;text-anchor:start;fill:#af4343;fill-opacity:1;stroke:#000000;stroke-width:4;stroke-linecap:butt;stroke-linejoin:miter;stroke-miterlimit:4;stroke-dasharray:none;stroke-opacity:1"
         id="text4608">
        <path
           d="m -45.30831,90.696343 q 2.325439,12.298987 3.720703,21.962487 -9.766846,-0.41341 -17.82837,-0.41341 0.8785,30.48909 0,52.70996 h -19.12028 q -1.653646,-13.33252 -1.240234,-44.80347 l -0.103353,-7.75146 q -9.095053,0 -18.965251,0.77514 1.395263,-13.642577 3.307291,-22.065835 21.135662,-0.413412 50.229494,-0.413412 z"
           style="font-style:normal;font-variant:normal;font-weight:bold;font-stretch:normal;font-size:105.83333588px;font-family:'Lapsus Pro';-inkscape-font-specification:'Lapsus Pro, Bold';font-variant-ligatures:normal;font-variant-caps:normal;font-variant-numeric:normal;font-feature-settings:normal;text-align:start;writing-mode:lr-tb;text-anchor:start;fill:#af4343;fill-opacity:1;stroke:#000000;stroke-width:4;stroke-miterlimit:4;stroke-dasharray:none;stroke-opacity:1"
           id="path5125" />
        <path
           d="m -5.0006921,90.954725 23.3060711,12.298995 -19.3786621,61.80501 -20.8772789,0.10335 -21.859132,-61.08154 q 4.082439,-2.48047 23.306072,-11.058757 0.826823,1.550293 8.578288,30.230717 z"
           style="font-style:normal;font-variant:normal;font-weight:bold;font-stretch:normal;font-size:105.83333588px;font-family:'Lapsus Pro';-inkscape-font-specification:'Lapsus Pro, Bold';font-variant-ligatures:normal;font-variant-caps:normal;font-variant-numeric:normal;font-feature-settings:normal;text-align:start;writing-mode:lr-tb;text-anchor:start;fill:#af4343;fill-opacity:1;stroke:#000000;stroke-width:4;stroke-miterlimit:4;stroke-dasharray:none;stroke-opacity:1"
           id="path5127" />
      </g>
      <g
         aria-label="Family"
         style="font-style:normal;font-variant:normal;font-weight:bold;font-stretch:normal;font-size:105.83333588px;line-height:125%;font-family:'Lapsus Pro';-inkscape-font-specification:'Lapsus Pro, Bold';font-variant-ligatures:normal;font-variant-caps:normal;font-variant-numeric:normal;font-feature-settings:normal;text-align:start;letter-spacing:0px;word-spacing:0px;writing-mode:lr-tb;text-anchor:start;fill:#af4343;fill-opacity:1;stroke:#000000;stroke-width:4;stroke-linecap:butt;stroke-linejoin:miter;stroke-miterlimit:4;stroke-dasharray:none;stroke-opacity:1"
         id="text4608-4">
        <path
           style=""
           d="m 210.11562,91.419813 -2.42879,20.928957 -30.54077,2.89388 0.46509,6.71794 21.54907,-0.6718 -1.60197,14.10767 -18.55184,1.49861 2.8422,25.78655 -22.84098,3.0489 -8.57829,-69.91821 z"
           id="path5130" />
        <path
           style=""
           d="m 236.57395,112.14206 q 13.07414,-0.56844 16.07138,18.96525 2.42879,17.46664 3.41064,30.43742 l -17.00155,4.96094 -0.56844,-3.25561 q -7.13134,2.79052 -15.19287,2.73885 -13.07414,-2.32544 -14.05599,-15.76132 0,-11.31713 14.83114,-13.12581 6.40788,-0.82682 12.14396,-0.0517 -0.41341,-8.94002 -3.15226,-9.30175 -4.85759,-0.15503 -12.76408,8.73331 l -11.16211,-8.83667 q 10.69702,-15.86466 27.44018,-15.50293 z m -11.73055,39.01571 q 0.82683,1.757 4.70256,1.80868 3.20394,-0.10336 7.69979,-0.98186 l -0.51677,-5.06429 -4.49585,0.0517 q -7.75146,0.0517 -7.38973,4.18579 z"
           id="path5132" />
        <path
           style=""
           d="m 270.99046,111.88368 0.46509,3.46232 q 7.64811,-1.86035 12.29899,-1.34359 6.25285,0.51677 11.00708,3.514 4.85759,-5.27099 16.69149,-5.27099 9.35344,0 14.93449,9.66349 1.757,5.16764 1.757,10.54199 0,21.4974 -1.24024,33.43465 h -15.70963 q 0.0517,-10.02522 0,-29.19718 -0.46509,-4.70256 -5.16764,-5.11597 -6.30453,0.10335 -5.68441,9.30176 l 0.10335,25.01139 h -15.29622 l -0.15503,-10.18025 -0.10336,-16.63982 q -0.36173,-3.7207 -4.65087,-4.34082 -6.35621,0.0517 -6.45956,6.40788 l -0.36173,24.75301 h -17.7767 l 0.15503,-24.64965 q -0.0517,-15.29623 -1.49861,-26.35499 z"
           id="path5134" />
        <path
           style=""
           d="m 347.67829,94.003635 q 6.04615,0.155029 6.92465,4.960938 0.56844,12.970787 -14.36605,13.229167 -5.4777,-0.36174 -6.09782,-6.3562 -0.93018,-10.180259 13.53922,-11.833905 z m 2.37712,26.251625 q -4.34082,13.12582 -3.514,22.42758 1.08521,6.5629 6.66626,2.68717 l 6.71794,14.00431 q -5.271,5.47771 -14.52108,6.1495 -16.07137,0.82682 -17.05322,-18.19011 -1.44694,-13.12581 3.77238,-31.10921 z"
           id="path5136" />
        <path
           style=""
           d="m 383.80012,90.696343 q -9.19841,39.480797 -9.19841,50.487877 0,7.13135 3.66903,7.13135 2.68717,-0.15503 4.49585,-2.53215 l 7.80314,10.54199 q -4.90926,9.76685 -17.20825,9.50847 -11.05876,0 -13.69426,-7.9065 -2.06706,-5.21932 -2.06706,-13.7976 -0.51676,-22.53093 7.49309,-52.193202 z"
           id="path5138" />
        <path
           style=""
           d="m 433.66788,115.24265 1.80867,16.63981 q 0.20671,28.00863 -12.55737,41.13444 -12.7124,13.12582 -21.91081,15.03784 l -10.33528,-14.52107 q 14.72778,-7.85482 23.20271,-18.6552 h -7.13134 q -16.53646,0.0517 -18.70687,-16.63981 -0.51677,-10.64534 0.15503,-21.03231 l 14.93449,-3.7207 v 4.13412 q 0,18.60351 4.5992,21.18733 5.94279,2.17041 9.25008,-0.0517 0.20671,-13.79761 -1.86035,-26.61337 z"
           id="path5140" />
      </g>
    </g>
  </g>
</svg>
