<?xml version="1.0" encoding="UTF-8" standalone="no"?>
<svg
   xmlns:dc="http://purl.org/dc/elements/1.1/"
   xmlns:cc="http://creativecommons.org/ns#"
   xmlns:rdf="http://www.w3.org/1999/02/22-rdf-syntax-ns#"
   xmlns:svg="http://www.w3.org/2000/svg"
   xmlns="http://www.w3.org/2000/svg"
   id="svg6"
   xml:space="preserve"
   enable-background="new 0 0 1000 1000"
   viewBox="0 0 96 96"
   y="0px"
   x="0px"
   version="1.1"><metadata
     id="metadata12"><rdf:RDF><cc:Work
         rdf:about=""><dc:format>image/svg+xml</dc:format><dc:type
           rdf:resource="http://purl.org/dc/dcmitype/StillImage" /><dc:title></dc:title></cc:Work></rdf:RDF></metadata><defs
     id="defs10" /><g
     transform="matrix(0.0631908,0,0,0.0631908,17.476083,17.382531)"
     id="g4"><path
       id="path2"
       d="M 954.7,855 774.6,674.8 c -13.5,-13.5 -30.8,-20.8 -48.4,-22.5 54.3,-67.7 87,-153.5 87,-246.8 C 813.1,187.4 635.7,10 417.6,10 199.5,10 22.1,187.4 22.1,405.5 22.1,623.6 199.5,801 417.6,801 c 82.3,0 158.8,-25.3 222.1,-68.5 0.4,19.6 8,39.1 23,54.1 l 180.2,180.2 c 15.4,15.5 35.7,23.2 55.9,23.2 20.2,0 40.5,-7.7 55.9,-23.2 30.9,-30.9 30.9,-80.9 0,-111.8 z M 417.6,669.2 c -145.4,0 -263.7,-118.3 -263.7,-263.7 0,-145.4 118.3,-263.7 263.7,-263.7 145.4,0 263.7,118.3 263.7,263.7 0,145.4 -118.3,263.7 -263.7,263.7 z" /></g></svg>
